#!OML:ASF I:\golf\golf\golf 2\Subject 1\2002-09-07\Subject1.ASF
:FULLY-SPECIFIED
:DEGREES
246
root 0.255119 17.6776 -6.19981 36.694 25.6167 5.0001
lowerback 17.9059 1.8823 1.77869
upperback 9.42685 3.08476 7.8924
thorax -0.242629 1.47196 6.86892
lowerneck -18.5164 -7.34984 -3.00756
upperneck 27.6679 -7.72754 -4.94005
head 12.107 -4.2718 -2.53087
rclavicle -3.18055e-014 -1.11319e-014
rhumerus 7.80565 13.7332 -65.7555
rradius 34.6749
rwrist -14.7374
rhand -19.9793 10.9312
rfingers 7.12502
rthumb 6.35976 -18.9534
lclavicle -3.18055e-014 -1.11319e-014
lhumerus -24.7329 -11.8505 90.2786
lradius 56.7803
lwrist 9.15349
lhand -9.95975 30.2313
lfingers 7.12502
lthumb 16.0224 59.5888
rfemur -64.2246 -4.67126 17.3579
rtibia 33.8489
rfoot -0.96634 -6.12394
rtoes 10.5428
lfemur -35.2255 -4.93729 -13.6056
ltibia 25.7778
lfoot -19.2544 -12.5726
ltoes -6.34302
247
root 0.207393 17.6758 -6.13228 37.6019 26.0638 5.60454
lowerback 18.5244 1.91385 1.82149
upperback 9.40317 3.18062 7.98369
thorax -0.599588 1.52341 6.91202
lowerneck -18.1874 -7.56825 -2.96023
upperneck 26.9983 -8.10681 -4.84382
head 11.7737 -4.42582 -2.51319
rclavicle -7.63333e-014 -3.65764e-014
rhumerus 8.8868 13.3726 -65.0926
rradius 34.2666
rwrist -14.491
rhand -20.1158 11.1204
rfingers 7.12502
rthumb 6.22803 -18.7681
lclavicle -7.63333e-014 -3.65764e-014
lhumerus -25.1882 -12.5688 90.4645
lradius 58.0174
lwrist 9.1927
lhand -9.89766 29.8606
lfingers 7.12502
lthumb 16.0822 59.2132
rfemur -64.9006 -5.04714 17.1801
rtibia 34.2106
rfoot -1.26966 -6.43725
rtoes 11.0403
lfemur -35.9659 -4.49262 -13.9895
ltibia 25.853
lfoot -19.1596 -12.5584
ltoes -8.65386
248
root 0.160669 17.674 -6.07112 38.62 26.3746 6.14992
lowerback 19.0333 1.9887 1.92313
upperback 9.46021 3.3267 8.03041
thorax -0.812003 1.59942 6.86565
lowerneck -18.3024 -7.78797 -2.99416
upperneck 26.5183 -8.47692 -4.61564
head 11.6177 -4.56783 -2.46419
rclavicle 4.45278e-014 1.90833e-014
rhumerus 10.2332 12.9863 -64.1949
rradius 33.9032
rwrist -14.4544
rhand -20.0544 11.1282
rfingers 7.12502
rthumb 6.28726 -18.7585
lclavicle 4.45278e-014 1.90833e-014
lhumerus -25.3265 -13.249 90.594
lradius 59.2153
lwrist 9.28968
lhand -9.8097 29.5385
lfingers 7.12502
lthumb 16.1669 58.8842
rfemur -65.7613 -5.35313 17.0351
rtibia 34.5616
rfoot -1.48613 -6.6538
rtoes 11.5388
lfemur -36.8125 -4.05225 -14.3453
ltibia 25.9228
lfoot -19.0882 -12.1801
ltoes -11.3082
249
root 0.11883 17.6726 -6.01012 39.6616 26.6166 6.6563
lowerback 19.395 2.02106 2.00507
upperback 9.6348 3.40039 8.10316
thorax -0.814525 1.63583 6.88063
lowerneck -18.6434 -7.93627 -3.08887
upperneck 25.9469 -8.71613 -4.40511
head 11.4784 -4.66317 -2.40139
rclavicle -1.59028e-014 2.38542e-015
rhumerus 11.8944 12.856 -63.1359
rradius 33.4894
rwrist -14.325
rhand -20.1468 11.2267
rfingers 7.12502
rthumb 6.19809 -18.6626
lclavicle -1.59028e-014 2.38542e-015
lhumerus -25.1432 -13.6776 90.7107
lradius 60.2644
lwrist 9.35722
lhand -9.62268 29.603
lfingers 7.12502
lthumb 16.347 58.9341
rfemur -66.6781 -5.7905 17.0824
rtibia 34.8896
rfoot -1.70634 -6.60511
rtoes 12.0443
lfemur -37.6496 -3.52622 -14.7406
ltibia 26.0104
lfoot -18.8231 -11.6491
ltoes -12.323
250
root 0.0776804 17.6756 -5.93735 40.3109 26.9057 7.12251
lowerback 20.0772 2.0774 1.98529
upperback 9.88839 3.5146 8.32721
thorax -0.91063 1.68699 7.10902
lowerneck -18.7982 -8.11974 -3.36788
upperneck 25.2454 -8.96429 -4.1576
head 11.2689 -4.77623 -2.28435
rclavicle -5.08889e-014 1.82882e-014
rhumerus 13.5936 13.0096 -61.6974
rradius 33.0792
rwrist -14.304
rhand -20.5398 11.1411
rfingers 7.12502
rthumb 5.81865 -18.759
lclavicle -5.08889e-014 1.82882e-014
lhumerus -25.0319 -13.9729 91.0234
lradius 61.3102
lwrist 9.34114
lhand -9.48918 29.5618
lfingers 7.12502
lthumb 16.4755 58.8822
rfemur -67.1239 -6.25892 17.219
rtibia 35.1957
rfoot -2.10219 -6.49985
rtoes 13.1766
lfemur -37.9907 -2.9388 -15.1349
ltibia 26.1178
lfoot -18.6397 -10.9938
ltoes -13.598
251
root 0.038846 17.6772 -5.87035 41.0533 27.2069 7.53145
lowerback 20.7075 2.20784 2.0166
upperback 10.0271 3.73812 8.58728
thorax -1.11609 1.79427 7.32093
lowerneck -18.8015 -8.35949 -3.54569
upperneck 24.5613 -9.28692 -4.04847
head 11.0258 -4.92961 -2.23712
rclavicle -3.49861e-014 -3.97569e-015
rhumerus 15.1935 13.4559 -59.6002
rradius 32.8746
rwrist -15.1077
rhand -20.7808 10.9537
rfingers 7.12502
rthumb 5.58596 -18.9527
lclavicle -3.49861e-014 -3.97569e-015
lhumerus -25.1487 -14.389 91.4323
lradius 62.4089
lwrist 9.41605
lhand -9.37356 28.91
lfingers 7.12502
lthumb 16.5868 58.2212
rfemur -67.7211 -6.76092 17.4812
rtibia 35.4839
rfoot -2.3317 -6.24427
rtoes 13.3416
lfemur -38.4471 -2.47684 -15.4169
ltibia 26.2441
lfoot -18.6857 -9.63644
ltoes -16.3457
252
root 0.0015264 17.6786 -5.80674 41.8779 27.4866 7.94195
lowerback 21.0917 2.2952 2.29124
upperback 10.2277 3.91687 8.65087
thorax -1.09737 1.88741 7.1886
lowerneck -18.8963 -8.56082 -3.39839
upperneck 23.8462 -9.63494 -4.00633
head 10.7671 -5.07571 -2.26998
rclavicle 5.08889e-014 -8.11041e-014
rhumerus 16.6516 12.7431 -58.6753
rradius 32.3606
rwrist -14.8342
rhand -20.984 11.38
rfingers 7.12502
rthumb 5.38983 -18.5315
lclavicle 5.08889e-014 -8.11041e-014
lhumerus -24.9721 -14.9259 91.5037
lradius 63.2584
lwrist 9.60903
lhand -9.23454 28.2742
lfingers 7.12502
lthumb 16.7207 57.5741
rfemur -68.3956 -7.20165 17.6974
rtibia 35.746
rfoot -2.45661 -6.03097
rtoes 12.3112
lfemur -38.9497 -2.1811 -15.6107
ltibia 26.3352
lfoot -18.6543 -7.94327
ltoes -17.7235
253
root -0.0342375 17.6768 -5.74519 42.7062 27.6882 8.34715
lowerback 21.4658 2.34506 2.42271
upperback 10.4109 4.02786 8.77483
thorax -1.09556 1.94212 7.22191
lowerneck -18.8632 -8.71595 -3.56819
upperneck 23.0768 -9.86562 -3.81504
head 10.4975 -5.17986 -2.17688
rclavicle -2.54444e-014 1.82882e-014
rhumerus 18.1695 12.3175 -57.6135
rradius 31.8802
rwrist -14.6024
rhand -21.2496 11.8476
rfingers 7.12502
rthumb 5.13338 -18.0703
lclavicle -2.54444e-014 1.82882e-014
lhumerus -24.8016 -14.9585 91.7151
lradius 63.9481
lwrist 9.68144
lhand -9.14626 27.8903
lfingers 7.12502
lthumb 16.8056 57.183
rfemur -69.0842 -7.5793 17.8661
rtibia 35.9588
rfoot -2.6544 -5.94616
rtoes 12.4615
lfemur -39.459 -2.08065 -15.6949
ltibia 26.5857
lfoot -18.5284 -6.19121
ltoes -17.1032
254
root -0.0784838 17.6835 -5.67116 43.261 27.8438 8.73094
lowerback 22.1549 2.40271 2.32542
upperback 10.6087 4.13496 8.96645
thorax -1.25226 1.98751 7.45716
lowerneck -18.66 -8.83272 -3.88851
upperneck 22.2506 -10.0226 -3.55513
head 10.1939 -5.25529 -2.01708
rclavicle -1.27222e-014 -4.45278e-014
rhumerus 19.7338 11.938 -56.581
rradius 31.3429
rwrist -13.8786
rhand -21.2714 11.9462
rfingers 7.12502
rthumb 5.11226 -17.9721
lclavicle -1.27222e-014 -4.45278e-014
lhumerus -24.919 -14.8206 91.9821
lradius 64.8694
lwrist 9.76025
lhand -9.018 27.6734
lfingers 7.12502
lthumb 16.9291 56.9556
rfemur -69.3678 -7.68666 17.7984
rtibia 36.1163
rfoot -3.01631 -6.22976
rtoes 13.8657
lfemur -39.5506 -1.90953 -15.7393
ltibia 26.8241
lfoot -18.4752 -4.6736
ltoes -16.1975
255
root -0.10424 17.6736 -5.63459 44.5495 28.3415 9.34773
lowerback 22.2171 2.22631 2.82553
upperback 10.6023 4.02133 9.06674
thorax -1.24996 1.94597 7.30615
lowerneck -18.5081 -8.93582 -3.97847
upperneck 21.512 -10.1792 -3.47892
head 9.91017 -5.33225 -1.96207
rclavicle 6.36111e-014 -2.54444e-014
rhumerus 21.3015 11.4814 -55.511
rradius 30.7214
rwrist -13.1028
rhand -21.0041 11.8095
rfingers 7.12502
rthumb 5.37043 -18.1024
lclavicle 6.36111e-014 -2.54444e-014
lhumerus -25.1592 -14.9151 92.1884
lradius 66.0591
lwrist 10.0497
lhand -8.77171 28.0468
lfingers 7.12502
lthumb 17.1662 57.3085
rfemur -70.4528 -8.41821 18.0299
rtibia 36.2211
rfoot -3.09885 -6.19205
rtoes 14.7063
lfemur -40.5618 -2.12633 -15.6998
ltibia 27.117
lfoot -18.2239 -3.32015
ltoes -15.9031
256
root -0.145836 17.6852 -5.56614 45.0453 28.4427 9.63427
lowerback 22.8744 2.3758 2.81014
upperback 10.8359 4.25485 9.22929
thorax -1.3554 2.05499 7.43217
lowerneck -18.5019 -9.06111 -3.96575
upperneck 20.8541 -10.385 -3.41639
head 9.6769 -5.4248 -1.9447
rclavicle 6.67916e-014 2.38542e-014
rhumerus 22.8332 10.9218 -54.4353
rradius 30.0783
rwrist -12.663
rhand -21.0493 11.8917
rfingers 7.12502
rthumb 5.32678 -18.0214
lclavicle 6.67916e-014 2.38542e-014
lhumerus -25.2749 -15.0079 92.3851
lradius 67.1466
lwrist 10.4317
lhand -8.58932 28.0308
lfingers 7.12502
lthumb 17.3417 57.2772
rfemur -70.7437 -8.66977 18.2851
rtibia 36.2937
rfoot -3.10174 -5.95569
rtoes 14.2548
lfemur -40.6005 -1.71925 -15.7226
ltibia 27.3525
lfoot -18.2473 -2.46973
ltoes -15.7006
257
root -0.180118 17.692 -5.51011 45.8056 28.5529 10.0353
lowerback 23.2604 2.44461 2.87363
upperback 11.1457 4.37414 9.37315
thorax -1.22101 2.10919 7.52922
lowerneck -18.8325 -9.20322 -4.03777
upperneck 20.1287 -10.5836 -3.32106
head 9.4897 -5.51908 -1.91823
rclavicle 0 2.14687e-014
rhumerus 24.6263 10.2822 -53.2715
rradius 29.4449
rwrist -12.1711
rhand -21.4 11.9976
rfingers 7.12502
rthumb 4.98808 -17.9237
lclavicle 0 2.14687e-014
lhumerus -25.1021 -14.9423 92.5729
lradius 68.0429
lwrist 10.8087
lhand -8.63106 27.2258
lfingers 7.12502
lthumb 17.3016 56.4756
rfemur -71.3135 -9.05724 18.4973
rtibia 36.3647
rfoot -2.99934 -5.73614
rtoes 12.7701
lfemur -40.8918 -1.46992 -15.7778
ltibia 27.6204
lfoot -18.2576 -1.91816
ltoes -15.0687
258
root -0.218054 17.6961 -5.45198 46.5267 28.6281 10.3884
lowerback 23.6442 2.5903 2.84048
upperback 11.3133 4.57836 9.48499
thorax -1.25724 2.20405 7.61816
lowerneck -18.5025 -9.36568 -3.94765
upperneck 19.1983 -10.8862 -3.24172
head 9.10349 -5.65288 -1.89116
rclavicle -1.59028e-014 2.94201e-014
rhumerus 26.0288 9.58534 -52.2475
rradius 28.8297
rwrist -11.4306
rhand -21.5191 12.0023
rfingers 7.12502
rthumb 4.87318 -17.9217
lclavicle -1.59028e-014 2.94201e-014
lhumerus -25.3084 -15.1223 92.7519
lradius 68.9338
lwrist 11.1847
lhand -8.65462 26.735
lfingers 7.12502
lthumb 17.2789 55.9869
rfemur -71.8676 -9.32708 18.6813
rtibia 36.4573
rfoot -3.12882 -5.66233
rtoes 12.2427
lfemur -41.0685 -1.09455 -15.7986
ltibia 27.7801
lfoot -18.2222 -1.7938
ltoes -14.5155
